<svg width="24" height="27" viewBox="0 0 24 27" fill="none" xmlns="http://www.w3.org/2000/svg">
<g clip-path="url(#clip0_526_908)">
<path d="M12 16.2C11.6222 16.2 11.3053 16.0704 11.0493 15.8112C10.7933 15.552 10.6658 15.2316 10.6667 14.85C10.6667 14.4675 10.7947 14.1466 11.0507 13.8874C11.3067 13.6282 11.6231 13.4991 12 13.5C12.3778 13.5 12.6947 13.6296 12.9507 13.8888C13.2067 14.148 13.3342 14.4684 13.3333 14.85C13.3333 15.2325 13.2053 15.5533 12.9493 15.8125C12.6933 16.0717 12.3769 16.2009 12 16.2ZM6.66667 16.2C6.28889 16.2 5.972 16.0704 5.716 15.8112C5.46 15.552 5.33245 15.2316 5.33333 14.85C5.33333 14.4675 5.46133 14.1466 5.71733 13.8874C5.97333 13.6282 6.28978 13.4991 6.66667 13.5C7.04445 13.5 7.36133 13.6296 7.61733 13.8888C7.87333 14.148 8.00089 14.4684 8 14.85C8 15.2325 7.872 15.5533 7.616 15.8125C7.36 16.0717 7.04356 16.2009 6.66667 16.2ZM17.3333 16.2C16.9556 16.2 16.6387 16.0704 16.3827 15.8112C16.1267 15.552 15.9991 15.2316 16 14.85C16 14.4675 16.128 14.1466 16.384 13.8874C16.64 13.6282 16.9564 13.4991 17.3333 13.5C17.7111 13.5 18.028 13.6296 18.284 13.8888C18.54 14.148 18.6676 14.4684 18.6667 14.85C18.6667 15.2325 18.5387 15.5533 18.2827 15.8125C18.0267 16.0717 17.7102 16.2009 17.3333 16.2ZM12 21.6C11.6222 21.6 11.3053 21.4704 11.0493 21.2112C10.7933 20.952 10.6658 20.6316 10.6667 20.25C10.6667 19.8675 10.7947 19.5466 11.0507 19.2874C11.3067 19.0282 11.6231 18.8991 12 18.9C12.3778 18.9 12.6947 19.0296 12.9507 19.2888C13.2067 19.548 13.3342 19.8684 13.3333 20.25C13.3333 20.6325 13.2053 20.9533 12.9493 21.2125C12.6933 21.4717 12.3769 21.6009 12 21.6ZM6.66667 21.6C6.28889 21.6 5.972 21.4704 5.716 21.2112C5.46 20.952 5.33245 20.6316 5.33333 20.25C5.33333 19.8675 5.46133 19.5466 5.71733 19.2874C5.97333 19.0282 6.28978 18.8991 6.66667 18.9C7.04445 18.9 7.36133 19.0296 7.61733 19.2888C7.87333 19.548 8.00089 19.8684 8 20.25C8 20.6325 7.872 20.9533 7.616 21.2125C7.36 21.4717 7.04356 21.6009 6.66667 21.6ZM17.3333 21.6C16.9556 21.6 16.6387 21.4704 16.3827 21.2112C16.1267 20.952 15.9991 20.6316 16 20.25C16 19.8675 16.128 19.5466 16.384 19.2874C16.64 19.0282 16.9564 18.8991 17.3333 18.9C17.7111 18.9 18.028 19.0296 18.284 19.2888C18.54 19.548 18.6676 19.8684 18.6667 20.25C18.6667 20.6325 18.5387 20.9533 18.2827 21.2125C18.0267 21.4717 17.7102 21.6009 17.3333 21.6ZM2.66667 27C1.93334 27 1.30534 26.7354 0.782669 26.2062C0.260002 25.677 -0.000886625 25.0416 2.26372e-06 24.3V5.4C2.26372e-06 4.6575 0.261336 4.02165 0.784002 3.49245C1.30667 2.96325 1.93422 2.6991 2.66667 2.7H4V0H6.66667V2.7H17.3333V0H20V2.7H21.3333C22.0667 2.7 22.6947 2.9646 23.2173 3.4938C23.74 4.023 24.0009 4.6584 24 5.4V24.3C24 25.0425 23.7387 25.6783 23.216 26.2075C22.6933 26.7367 22.0658 27.0009 21.3333 27H2.66667ZM2.66667 24.3H21.3333V10.8H2.66667V24.3Z" fill="#676C72"/>
</g>
<defs>
<clipPath id="clip0_526_908">
<rect width="24" height="27" fill="white"/>
</clipPath>
</defs>
</svg>
