<svg width="43" height="33" viewBox="0 0 43 33" fill="none" xmlns="http://www.w3.org/2000/svg">
<g clip-path="url(#clip0_294_405)">
<path d="M35.5402 2.65997C32.8802 1.41997 30.0002 0.51997 27.0002 -3.00739e-05C26.9739 -0.00087128 26.9478 0.00406488 26.9236 0.0144314C26.8994 0.024798 26.8778 0.0403432 26.8602 0.0599703C26.5002 0.71997 26.0802 1.57997 25.8002 2.23997C22.6182 1.75997 19.3822 1.75997 16.2002 2.23997C15.9202 1.55997 15.5002 0.71997 15.1202 0.0599703C15.1002 0.0199703 15.0402 -3.00739e-05 14.9802 -3.00739e-05C11.9802 0.51997 9.12024 1.41997 6.44023 2.65997C6.42023 2.65997 6.40024 2.67997 6.38024 2.69997C0.940235 10.84 -0.559766 18.76 0.180234 26.6C0.180234 26.64 0.200234 26.68 0.240234 26.7C3.84023 29.34 7.30024 30.94 10.7202 32C10.7802 32.02 10.8402 32 10.8602 31.96C11.6602 30.86 12.3802 29.7 13.0002 28.48C13.0402 28.4 13.0002 28.32 12.9202 28.3C11.7802 27.86 10.7002 27.34 9.64024 26.74C9.56024 26.7 9.56024 26.58 9.62024 26.52C9.84024 26.36 10.0602 26.18 10.2802 26.02C10.3202 25.98 10.3802 25.98 10.4202 26C17.3002 29.14 24.7202 29.14 31.5202 26C31.5602 25.98 31.6202 25.98 31.6602 26.02C31.8802 26.2 32.1002 26.36 32.3202 26.54C32.4002 26.6 32.4002 26.72 32.3002 26.76C31.2602 27.38 30.1602 27.88 29.0202 28.32C28.9402 28.34 28.9202 28.44 28.9402 28.5C29.5802 29.72 30.3002 30.88 31.0802 31.98C31.1402 32 31.2002 32.02 31.2602 32C34.7002 30.94 38.1602 29.34 41.7602 26.7C41.8002 26.68 41.8202 26.64 41.8202 26.6C42.7002 17.54 40.3602 9.67997 35.6202 2.69997C35.6002 2.67997 35.5802 2.65997 35.5402 2.65997ZM14.0402 21.82C11.9802 21.82 10.2602 19.92 10.2602 17.58C10.2602 15.24 11.9402 13.34 14.0402 13.34C16.1602 13.34 17.8402 15.26 17.8202 17.58C17.8202 19.92 16.1402 21.82 14.0402 21.82ZM27.9802 21.82C25.9202 21.82 24.2002 19.92 24.2002 17.58C24.2002 15.24 25.8802 13.34 27.9802 13.34C30.1002 13.34 31.7802 15.26 31.7602 17.58C31.7602 19.92 30.1002 21.82 27.9802 21.82Z" fill="black"/>
</g>
<defs>
<clipPath id="clip0_294_405">
<rect width="43" height="33.0001" fill="white"/>
</clipPath>
</defs>
</svg>
