<svg width="40" height="40" viewBox="0 0 40 40" fill="none" xmlns="http://www.w3.org/2000/svg">
<path d="M20 18.3334C22.2102 18.3334 24.3298 19.2113 25.8926 20.7741C27.4554 22.337 28.3334 24.4566 28.3334 26.6667V36.6667H11.6667V26.6667C11.6667 24.4566 12.5447 22.337 14.1075 20.7741C15.6703 19.2113 17.7899 18.3334 20 18.3334ZM8.81337 23.3434C8.54814 24.238 8.39146 25.1613 8.34671 26.0934L8.33337 26.6667V36.6667H3.33337V29.1667C3.33305 27.7293 3.86342 26.3424 4.82277 25.2721C5.78211 24.2017 7.10287 23.5232 8.53171 23.3667L8.81337 23.3434ZM31.1867 23.3434C32.6699 23.4338 34.0627 24.0866 35.081 25.1688C36.0994 26.2509 36.6665 27.6808 36.6667 29.1667V36.6667H31.6667V26.6667C31.6667 25.5117 31.5 24.3967 31.1867 23.3434ZM9.16671 13.3334C10.2718 13.3334 11.3316 13.7724 12.113 14.5538C12.8944 15.3352 13.3334 16.395 13.3334 17.5C13.3334 18.6051 12.8944 19.6649 12.113 20.4463C11.3316 21.2277 10.2718 21.6667 9.16671 21.6667C8.06164 21.6667 7.00183 21.2277 6.22043 20.4463C5.43903 19.6649 5.00004 18.6051 5.00004 17.5C5.00004 16.395 5.43903 15.3352 6.22043 14.5538C7.00183 13.7724 8.06164 13.3334 9.16671 13.3334ZM30.8334 13.3334C31.9384 13.3334 32.9982 13.7724 33.7797 14.5538C34.5611 15.3352 35 16.395 35 17.5C35 18.6051 34.5611 19.6649 33.7797 20.4463C32.9982 21.2277 31.9384 21.6667 30.8334 21.6667C29.7283 21.6667 28.6685 21.2277 27.8871 20.4463C27.1057 19.6649 26.6667 18.6051 26.6667 17.5C26.6667 16.395 27.1057 15.3352 27.8871 14.5538C28.6685 13.7724 29.7283 13.3334 30.8334 13.3334ZM20 3.33337C21.7682 3.33337 23.4638 4.03575 24.7141 5.286C25.9643 6.53624 26.6667 8.23193 26.6667 10C26.6667 11.7681 25.9643 13.4638 24.7141 14.7141C23.4638 15.9643 21.7682 16.6667 20 16.6667C18.2319 16.6667 16.5362 15.9643 15.286 14.7141C14.0358 13.4638 13.3334 11.7681 13.3334 10C13.3334 8.23193 14.0358 6.53624 15.286 5.286C16.5362 4.03575 18.2319 3.33337 20 3.33337Z" fill="#4285F4"/>
</svg>
